<?xml version="1.0" encoding="utf-8"?>
<!-- Generator: Adobe Illustrator 18.1.1, SVG Export Plug-In . SVG Version: 6.00 Build 0)  -->
<svg version="1.1" id="Layer_1" xmlns="http://www.w3.org/2000/svg" xmlns:xlink="http://www.w3.org/1999/xlink" x="0px" y="0px"
	 viewBox="0 0 283.3 318" style="enable-background:new 0 0 283.3 318;" xml:space="preserve">
<style type="text/css">
	.st0{fill:#32AEFF;}
	.st1{fill:url(#SVGID_1_);}
	.st2{fill:#FFFFFF;}
	.st3{fill:url(#SVGID_2_);}
	.st4{fill:url(#SVGID_3_);}
	.st5{fill:url(#SVGID_4_);}
</style>
<g>
	<polygon class="st0" points="274.7,234.7 142.7,310.9 10.7,234.7 10.7,82.5 142.7,6.3 274.7,82.5 	"/>
	<linearGradient id="SVGID_1_" gradientUnits="userSpaceOnUse" x1="143.4937" y1="157.4033" x2="302.3524" y2="-37.4633">
		<stop  offset="0" style="stop-color:#9BD7FF"/>
		<stop  offset="1" style="stop-color:#FFFFFF;stop-opacity:0"/>
	</linearGradient>
	<polygon class="st1" points="10.5,82.3 274.7,234.7 274.7,82.3 142.6,6.3 	"/>
	<g>
		<polygon class="st2" points="44.7,90 44.7,117 102.7,117 102.7,200 44.7,200 44.7,227 128.7,227 128.7,203.3 128.7,200.2 
			128.7,117 128.7,114.7 128.7,90 		"/>
		<rect x="44.8" y="129.5" class="st2" width="26.6" height="58.9"/>
	</g>
	<g>
		<polygon class="st2" points="152.7,90 152.7,117 208.7,117 208.7,200 152.7,200 152.7,227 235.7,227 235.7,203.3 235.7,200.2 
			235.7,117 235.7,114.7 235.7,90 		"/>
		<rect x="151.8" y="129.5" class="st2" width="26.6" height="58.9"/>
	</g>
	<g>
		<polygon class="st2" points="102.7,200 44.7,200 44.7,227 128.7,227 128.7,203.3 128.7,200.2 128.7,150.4 102.7,135.4 		"/>
		<polygon class="st2" points="44.7,117 71,117 44.7,101.9 		"/>
		<rect x="44.7" y="129" class="st2" width="27" height="59"/>
		<polygon class="st2" points="208.7,200 152.7,200 152.7,227 235.7,227 235.7,212.2 208.7,196.6 		"/>
		<polygon class="st2" points="151.7,188 178.7,188 178.7,179.3 151.7,164 		"/>
		<polygon class="st2" points="128.7,90 128.7,150.4 102.7,135.4 102.7,117 71,117 44.7,101.9 44.7,90 		"/>
		<linearGradient id="SVGID_2_" gradientUnits="userSpaceOnUse" x1="91.2293" y1="114.6132" x2="250.5419" y2="-80.8102">
			<stop  offset="0" style="stop-color:#D4EEFF"/>
			<stop  offset="1" style="stop-color:#A5DBFF;stop-opacity:0"/>
		</linearGradient>
		<polygon class="st3" points="128.7,90 128.7,150.4 102.7,135.4 102.7,117 71,117 44.7,101.9 44.7,90 		"/>
		<polygon class="st2" points="235.7,90 235.7,212.2 208.7,196.6 208.7,117 152.7,117 152.7,90 		"/>
		<linearGradient id="SVGID_3_" gradientUnits="userSpaceOnUse" x1="170.8862" y1="179.6675" x2="329.9966" y2="-15.508">
			<stop  offset="0" style="stop-color:#D4EEFF"/>
			<stop  offset="1" style="stop-color:#A5DBFF;stop-opacity:0"/>
		</linearGradient>
		<polygon class="st4" points="235.7,90 235.7,212.2 208.7,196.6 208.7,117 152.7,117 152.7,90 		"/>
		<polygon class="st2" points="178.7,129 178.7,179.3 151.7,164 151.7,129 		"/>
		<linearGradient id="SVGID_4_" gradientUnits="userSpaceOnUse" x1="154.7952" y1="166.8824" x2="316.037" y2="-30.9075">
			<stop  offset="0" style="stop-color:#D4EEFF"/>
			<stop  offset="1" style="stop-color:#A5DBFF;stop-opacity:0"/>
		</linearGradient>
		<polygon class="st5" points="178.7,129 178.7,179.3 151.7,164 151.7,129 		"/>
	</g>
</g>
<g>
</g>
<g>
</g>
<g>
</g>
<g>
</g>
<g>
</g>
<g>
</g>
<g>
</g>
<g>
</g>
<g>
</g>
<g>
</g>
<g>
</g>
<g>
</g>
<g>
</g>
<g>
</g>
<g>
</g>
</svg>
